<svg width="16" height="16" viewBox="0 0 16 16" fill="none" xmlns="http://www.w3.org/2000/svg">
<path d="M8.00008 1.33346C6.62182 1.30119 5.28689 1.81617 4.28738 2.7657C3.28786 3.71524 2.70516 5.02202 2.66675 6.40013C2.66675 9.78679 6.60675 13.8268 7.06008 14.2735C7.3099 14.5218 7.64783 14.6612 8.00008 14.6612C8.35233 14.6612 8.69026 14.5218 8.94008 14.2735C9.39341 13.8268 13.3334 9.78679 13.3334 6.40013C13.295 5.02202 12.7123 3.71524 11.7128 2.7657C10.7133 1.81617 9.37834 1.30119 8.00008 1.33346ZM8.00008 8.66679C7.60452 8.66679 7.21784 8.5495 6.88894 8.32973C6.56004 8.10997 6.3037 7.79761 6.15232 7.43216C6.00095 7.06671 5.96134 6.66458 6.03851 6.27661C6.11568 5.88865 6.30616 5.53229 6.58587 5.25258C6.86557 4.97288 7.22194 4.78239 7.6099 4.70522C7.99786 4.62805 8.4 4.66766 8.76545 4.81904C9.1309 4.97041 9.44326 5.22676 9.66302 5.55565C9.88278 5.88455 10.0001 6.27123 10.0001 6.66679C10.0001 7.19723 9.78937 7.70594 9.41429 8.08101C9.03922 8.45608 8.53051 8.66679 8.00008 8.66679Z" fill="white"/>
</svg>
